. 
   
http://www.torrentday.com/        :     The Hottest Private Tracker On The Net!!!


               www . TorrentDay . Com 
(((((((((((((= Enjoy No RAR releases =))))))))))))))))))))


...................................NFO:....................................

.




[pre]  
    *********** ****    ****      ***      ******** *********** ****    *** **********
           *+*     +*+*+* *+*+*+   *+* *+*   *+*    *+*    *+*     *+*+*   *+* *+*        
           +*+     +*+ +*+*+ +*+  +*+   +*+  +*+           +*+     *+*+*+  +*+ +*+        
           +$+     +$+  +*+  +$+ +$++*++$++* *$*           +$+     +$+ +*+ +$+ +$++*++$  
           +$+     +$+       +$+ +$+     +$+ +$+   +$+$    +$+     +$+  +$+$+$ +$+        
           $+$     $+$       $+$ $+$     $+$ $+$    $+$    $+$     $+$   $+$+$ $+$        
       $$$$$$$$$$$ $$$       $$$ $$$     $$$  $$$$$$$$ $$$$$$$$$$$ $$$    $$$$ $$$$$$$$$$     
                                                



                           Another Fine Release Brought to you from - IMAGiNE                   
                                                 

********************************************************************************************************************                                
                                                                                                                                   Life As We Know It TS XViD - IMAGiNE
********************************************************************************************************************

Ripper ...........: IMAGiNE                                        IMDB Rating.......:5.8/10                             
Video Codec.......: XVID                                         Release Date......:10/08/10
Audio Codec.......:MP3                                           Theatre Date......:10/10/10
Audio Bitrate.....:128                                              Runtime.......:1h 45mn
Subtitles.........:NIL                                                 Language..........:ENGLISH
Resolution...... 704 x 352                                      IMDb URL..........http://www.imdb.com/title/tt1055292/


[color=yellow]DETAILS:[/color]
Video
ID                               : 0
Format                           : MPEG-4 Visual
Format profile                   : Advanced Simple@L5
Format settings, BVOP            : Yes
Format settings, QPel            : No
Format settings, GMC             : No warppoints
Format settings, Matrix          : Default (H.263)
Muxing mode                      : Packed bitstream
Codec ID                         : XVID
Codec ID/Hint                    : XviD
Duration                         : 1h 45mn
Bit rate                         : 1 722 Kbps
Width                            : 704 pixels
Height                           : 352 pixels
Display aspect ratio             : 2.000
Frame rate                       : 25.013 fps
Color space                      : YUV
Chroma subsampling               : 4:2:0
Bit depth                        : 8 bits
Scan type                        : Progressive
Bits/(Pixel*Frame)               : 0.278
Stream size                      : 1.27 GiB (93%)
Writing library                  : XviD 1.1.2 (UTC 2006-11-01)

Audio
ID                               : 1
Format                           : MPEG Audio
Format version                   : Version 1
Format profile                   : Layer 3
Mode                             : Joint stereo
Mode extension                   : MS Stereo
Codec ID                         : 55
Codec ID/Hint                    : MP3
Duration                         : 1h 45mn
Bit rate mode                    : Constant
Bit rate                         : 128 Kbps
Channel(s)                       : 2 channels
Sampling rate                    : 44.1 KHz
Stream size                      : 97.0 MiB (7%)
Alignment                        : Split accross interleaves
Interleave, duration             : 40 ms (1.00 video frame)
Interleave, preload duration     : 500 ms





[color=yellow]SOURCES:[/color]

VIDEO: Life.As.We.Know.It.2010.TRUEFRENCH.TS.MD.XviD-SERENiTY.. Thanks
AUDIO: Own

[color=yellow]NOTES:[/color]

IMAGiNE bringing you another release..........Life As We Know It

What we did was use SERENiTY TS release and did our own encode from that. We just made a small script containing resize,white balance,rgb eq,sharpness,chroma,brightness,contrast ect.
Then we cleaned up are audio removing noise and hiss ect.Then synced it to our encode

[color=yellow]SCREENS:[/color]

[IMG]http://img23.imageshack.us/img23/8439/vlcsnap2010121602h41m14.png[/IMG]
[IMG]http://img132.imageshack.us/img132/3928/vlcsnap2010121602h41m33.png[/IMG]
[IMG]http://img408.imageshack.us/img408/8316/vlcsnap2010121602h42m15.png[/IMG]
[IMG]http://img220.imageshack.us/img220/2244/vlcsnap2010121602h37m25.png[/IMG]
[IMG]http://img190.imageshack.us/img190/9233/vlcsnap2010121602h38m13.png[/IMG]
[IMG]http://img529.imageshack.us/img529/3726/vlcsnap2010121602h38m41.png[/IMG]
[IMG]http://img221.imageshack.us/img221/3316/vlcsnap2010121602h40m05.png[/IMG]

[color=yellow]GREETS:[/color]

FLAWL3SS,ViSiON,FUSiON,Rx,SecretMyth,BirdFlu,ELEKTRI4KA and Autotron
And to all the other p2p grps past and present 

[COLOR=RED]Looking for these,syncers,cammers,silver supplier, Audio.....Have anything to offer????......
Contact us imaginegroup@hushmail.com[/COLOR][/pre]





                              
     
